<svg width="22" height="24" fill="none" xmlns="http://www.w3.org/2000/svg"><path d="M18.2 3.037c-.964-.338-1.763-1.148-1.763-2.17 0-.474-.407-.867-.897-.867-.49 0-.896.393-.896.867 0 .959-.777 1.735-1.735 1.735h-4.3A1.735 1.735 0 016.873.867C6.874.393 6.467 0 5.977 0S5.08.393 5.08.867c0 1.022-.799 1.832-1.763 2.17-2.045.717-3.079 2.347-3.27 4.55-.023.336.264.614.598.614h20.227c.346 0 .633-.29.597-.613-.19-2.204-1.224-3.834-3.269-4.551zm2.122 6.898H1.195c-.657 0-1.195.52-1.195 1.157v7.125C0 21.687 1.793 24 5.977 24h9.563c4.184 0 5.977-2.313 5.977-5.783v-7.125c0-.636-.538-1.157-1.195-1.157zM7.423 19.616c-.06.047-.12.104-.179.14a.915.915 0 01-.215.103.775.775 0 01-.215.07c-.084.011-.156.023-.24.023-.155 0-.31-.035-.454-.093a1.24 1.24 0 01-.394-.243 1.196 1.196 0 01-.347-.82c0-.302.132-.602.347-.822.12-.104.24-.185.394-.243a1.18 1.18 0 01.694-.07.779.779 0 01.215.07.923.923 0 01.215.104l.18.139c.215.22.346.52.346.821 0 .3-.131.602-.347.821zm0-4.048a1.28 1.28 0 01-.848.336 1.28 1.28 0 01-.849-.336 1.196 1.196 0 01-.347-.821c0-.3.132-.601.347-.821.335-.324.86-.428 1.303-.243.155.058.287.139.394.243.216.22.347.52.347.82 0 .302-.131.602-.347.822zm4.184 4.048a1.28 1.28 0 01-.848.336 1.28 1.28 0 01-.85-.336 1.196 1.196 0 01-.346-.82c0-.302.132-.602.347-.822.442-.428 1.255-.428 1.697 0 .216.22.347.52.347.821 0 .3-.132.602-.347.821zm0-4.048l-.179.139a.915.915 0 01-.215.104.776.776 0 01-.215.07c-.084.011-.156.023-.24.023a1.28 1.28 0 01-.848-.336 1.196 1.196 0 01-.347-.821c0-.3.132-.601.347-.821a1.12 1.12 0 01.394-.243 1.224 1.224 0 011.303.243c.216.22.347.52.347.82 0 .302-.132.602-.347.822zm4.184 4.048a1.28 1.28 0 01-.848.336 1.28 1.28 0 01-.85-.336 1.196 1.196 0 01-.346-.82c0-.302.132-.602.347-.822.442-.428 1.255-.428 1.697 0 .215.22.347.52.347.821 0 .3-.132.602-.347.821zm0-4.048l-.179.139a.917.917 0 01-.215.104.776.776 0 01-.215.07c-.084.011-.168.023-.24.023a1.28 1.28 0 01-.848-.336 1.196 1.196 0 01-.347-.821c0-.3.132-.601.347-.821.12-.104.239-.185.394-.243a1.18 1.18 0 01.694-.07.779.779 0 01.215.07.917.917 0 01.215.104l.18.139c.214.22.346.52.346.82 0 .302-.132.602-.347.822z" fill="#fff"/></svg>