<svg width="40" height="40" fill="none" xmlns="http://www.w3.org/2000/svg"><path d="M27.431 23.19c-.058 1.168-.325 2.203-1.178 3.056-.853.856-1.888 1.123-3.057 1.179l4.235-4.235zm0 0c.069-1.205.069-4.812 0-6.016v6.016zm-.024-6.015h0c.068 1.204.068 4.81 0 6.013h0c-.058 1.166-.324 2.194-1.171 3.041h0c-.847.85-1.875 1.116-3.04 1.171h-.001c-1.204.069-4.813.069-6.016 0h0c-1.166-.058-2.19-.324-3.041-1.171-.85-.847-1.116-1.875-1.171-3.04h0c-.069-1.204-.069-4.813 0-6.017h0c.058-1.166.321-2.194 1.171-3.04.85-.848 1.878-1.114 3.04-1.169h0c1.204-.068 4.813-.068 6.017 0h0c1.166.059 2.194.325 3.04 1.172h0c.85.847 1.117 1.875 1.172 3.04zm-2.91 8.716h0a2.486 2.486 0 001.401-1.4c.192-.483.265-1.297.291-2.12.018-.588.012-1.185.008-1.67a52.907 52.907 0 01-.004-.52l.003-.518c.005-.485.011-1.081-.007-1.67-.026-.822-.099-1.636-.29-2.12h-.001a2.486 2.486 0 00-1.4-1.4h0c-.483-.191-1.297-.264-2.12-.29a40.963 40.963 0 00-1.681-.009c-.19.002-.36.004-.508.004-.151 0-.326-.002-.52-.004a40.791 40.791 0 00-1.67.007c-.821.026-1.635.099-2.12.291h0a2.486 2.486 0 00-1.4 1.4h0c-.19.484-.264 1.298-.29 2.12a40.964 40.964 0 00-.008 1.682l.003.508-.003.519a41.12 41.12 0 00.007 1.67c.026.821.099 1.635.291 2.12h0c.26.648.756 1.144 1.4 1.4h0c.483.19 1.297.264 2.12.29.593.019 1.194.013 1.681.008l.509-.003c.15 0 .326.002.518.004.486.005 1.081.01 1.67-.008.822-.025 1.636-.098 2.12-.29zm-8.024-5.71a3.71 3.71 0 013.716-3.715 3.71 3.71 0 013.715 3.716 3.71 3.71 0 01-3.715 3.716 3.71 3.71 0 01-3.716-3.716zm1.26 0a2.46 2.46 0 002.456 2.457 2.46 2.46 0 002.456-2.456 2.458 2.458 0 00-2.456-2.456 2.458 2.458 0 00-2.456 2.456zm7.197-3.892c0 .471-.38.848-.848.848a.848.848 0 11.848-.848z" fill="#697687" stroke="#697687" stroke-width=".049"/><rect x=".5" y=".5" width="39" height="39" rx="19.5" stroke="#697687"/></svg>