<svg width="40" height="40" fill="none" xmlns="http://www.w3.org/2000/svg"><path d="M16.463 28.334c-.076-.725-.144-1.819.038-2.6.084-.358.351-1.497.599-2.546l.33-1.397.104-.444.03-.123.007-.033v-.002l-.008-.018a2.95 2.95 0 01-.126-.353 3.623 3.623 0 01-.138-.992c0-1.282.744-2.25 1.684-2.25.399 0 .696.15.893.39.197.241.292.57.292.925 0 .397-.126.891-.283 1.42l-.137.45c-.12.393-.245.796-.338 1.188h0c-.214.896.448 1.626 1.333 1.626.805 0 1.519-.424 2.032-1.159.514-.735.826-1.78.826-3.015 0-1.092-.392-2.018-1.063-2.67-.67-.654-1.622-1.035-2.742-1.035-2.595 0-4.115 1.943-4.115 3.952 0 .783.301 1.62.67 2.077 0 0 0 0 0 0l-.018.015c.074.09.085.17.063.263l.067 6.331zm0 0a9.146 9.146 0 01-5.772-8.5 9.14 9.14 0 019.142-9.143 9.14 9.14 0 019.143 9.142 9.14 9.14 0 01-11.819 8.743l-.694-.242z" fill="#697687" stroke="#697687" stroke-width=".049"/><rect x=".5" y=".5" width="39" height="39" rx="19.5" stroke="#697687"/></svg>