<svg width="40" height="40" fill="none" xmlns="http://www.w3.org/2000/svg"><g clip-path="url(#clip0_1_490)"><path d="M21.422 21.041v7.268h-3.211v-7.292h-2.65V18.05h2.65v-2.324c0-1.302.388-2.31 1.07-2.993.681-.683 1.66-1.042 2.847-1.042.57 0 1.152.05 1.593.102a17.562 17.562 0 01.685.093l.033.005v2.523h-1.291c-.654 0-1.087.203-1.355.514-.269.31-.37.724-.37 1.14v1.982h2.89l-.456 2.967h-2.434v.024z" fill="#697687" stroke="#697687" stroke-width=".049"/></g><rect x=".5" y=".5" width="39" height="39" rx="19.5" stroke="#697687"/><defs><clipPath id="clip0_1_490"><path fill="#fff" transform="translate(11.667 11.666)" d="M0 0h16.667v16.667H0z"/></clipPath></defs></svg>