<svg width="106" height="45" fill="none" xmlns="http://www.w3.org/2000/svg"><path d="M4.704 28.484V15.027H0v-3.072h12.913v3.072H8.21v13.457H4.704zm9.156 0V16.19h3.033l.118 1.863c.314-.652.737-1.148 1.27-1.49.533-.357 1.16-.535 1.882-.535.22 0 .439.023.658.07.22.03.416.077.588.14l-.352 3.212a2.098 2.098 0 00-.541-.117 3.054 3.054 0 00-.541-.046c-.91 0-1.608.28-2.094.838-.486.543-.729 1.32-.729 2.328v6.03h-3.293zm12.876-15.622c0 .357-.086.676-.259.955a1.77 1.77 0 01-.682.675 1.92 1.92 0 01-.94.233c-.346 0-.667-.078-.965-.233a2.017 2.017 0 01-.682-.675 1.916 1.916 0 01-.235-.955c0-.357.078-.675.235-.954.172-.28.4-.497.682-.652.298-.17.62-.256.964-.256.345 0 .659.085.941.256.298.155.525.373.682.652.173.28.259.598.259.954zm-3.528 15.622V16.19H26.5v12.293h-3.293zM29.134 33V16.192h3.034l.094 1.792a4.407 4.407 0 011.694-1.56 4.752 4.752 0 012.328-.582 5.22 5.22 0 012.258.49c.69.325 1.294.783 1.811 1.373.518.574.918 1.25 1.2 2.025.298.776.447 1.622.447 2.538a7.28 7.28 0 01-.447 2.584 6.718 6.718 0 01-1.246 2.095 5.934 5.934 0 01-1.882 1.397 5.59 5.59 0 01-2.329.489c-.768 0-1.466-.148-2.093-.442a4.503 4.503 0 01-1.576-1.28V33h-3.293zm6.374-7.1c.596 0 1.13-.156 1.6-.466.47-.31.839-.73 1.105-1.257.282-.543.423-1.157.423-1.84 0-.682-.14-1.288-.423-1.815a3.17 3.17 0 00-1.105-1.28 2.839 2.839 0 00-1.6-.466c-.596 0-1.129.155-1.6.465-.47.31-.846.738-1.128 1.28-.267.528-.4 1.134-.4 1.817 0 .682.133 1.296.4 1.839a3.39 3.39 0 001.129 1.257 2.84 2.84 0 001.6.465z" fill="#3685FB"/><path d="M51.562 29c-.983 0-1.91-.141-2.784-.423a8.618 8.618 0 01-2.363-1.198 8.677 8.677 0 01-1.824-1.88 8.999 8.999 0 01-1.17-2.397A9.508 9.508 0 0143 20.235c0-1.018.14-1.974.421-2.867a8.89 8.89 0 011.193-2.444 7.823 7.823 0 011.848-1.88 8.265 8.265 0 012.363-1.222 8.57 8.57 0 012.784-.446c1.107 0 2.136.18 3.087.54a7.5 7.5 0 012.504 1.551 6.97 6.97 0 011.707 2.444l-3.368 1.034c-.422-.752-.967-1.331-1.638-1.739-.655-.407-1.42-.61-2.292-.61-.718 0-1.38.14-1.989.422a4.484 4.484 0 00-1.59 1.175 5.4 5.4 0 00-1.053 1.763 6.313 6.313 0 00-.374 2.209c0 .814.124 1.566.374 2.255.25.69.6 1.285 1.053 1.786a5.081 5.081 0 001.637 1.175c.624.267 1.31.4 2.059.4.795 0 1.505-.15 2.128-.447a3.963 3.963 0 001.52-1.245c.39-.533.633-1.16.726-1.88h-4.14v-2.89h7.72v1.762c0 1.16-.204 2.224-.61 3.196a7.282 7.282 0 01-1.66 2.514 7.562 7.562 0 01-2.573 1.645c-.998.376-2.09.564-3.275.564zm16.418-.117a6.488 6.488 0 01-2.55-.494 6.288 6.288 0 01-2.036-1.363 6.528 6.528 0 01-1.357-2.091 7.11 7.11 0 01-.468-2.609c0-.94.164-1.801.492-2.585a6.53 6.53 0 011.356-2.09 6.372 6.372 0 012.059-1.387 6.727 6.727 0 012.597-.494c.92 0 1.77.165 2.55.494.78.329 1.458.79 2.035 1.386a5.972 5.972 0 011.333 2.068c.328.783.491 1.645.491 2.585s-.163 1.81-.49 2.608a6.34 6.34 0 01-1.381 2.092 6.053 6.053 0 01-2.059 1.386c-.78.329-1.637.494-2.573.494zm.046-2.961a2.79 2.79 0 001.59-.47 3.22 3.22 0 001.1-1.27c.28-.547.421-1.166.421-1.856 0-.689-.14-1.3-.421-1.832a3.186 3.186 0 00-1.1-1.293 2.793 2.793 0 00-1.59-.47 2.79 2.79 0 00-1.59.47 3.362 3.362 0 00-1.124 1.293c-.265.532-.397 1.143-.397 1.832 0 .69.132 1.308.397 1.857.281.532.655.955 1.123 1.269.468.313.998.47 1.59.47zm12.422 2.961c-.64 0-1.224-.095-1.754-.282a4.431 4.431 0 01-1.404-.8 3.947 3.947 0 01-.912-1.245 3.634 3.634 0 01-.328-1.55c0-.784.21-1.473.632-2.069.42-.595 1.013-1.057 1.778-1.386.764-.345 1.653-.517 2.666-.517.515 0 .998.047 1.45.14.469.095.92.228 1.358.4v-.728c0-.705-.203-1.277-.609-1.715-.39-.44-.928-.658-1.614-.658-.514 0-.982.133-1.403.4-.421.25-.718.61-.89 1.08l-2.923-.587a4.087 4.087 0 011.005-1.88 5.226 5.226 0 011.872-1.27 6.282 6.282 0 012.386-.446c.795 0 1.52.126 2.176.376.655.25 1.216.611 1.684 1.081a4.65 4.65 0 011.1 1.669c.264.626.397 1.331.397 2.114v7.52h-2.924l-.094-1.457c-.327.533-.803.971-1.427 1.316-.623.329-1.364.494-2.222.494zm-1.17-4.042c0 .438.18.799.538 1.08.36.283.835.424 1.427.424.515 0 .975-.11 1.38-.33a2.51 2.51 0 00.96-.892c.234-.392.35-.823.35-1.293v-.117a5.987 5.987 0 00-1.099-.33 4.974 4.974 0 00-1.17-.14c-.733 0-1.317.149-1.754.446-.421.282-.632.666-.632 1.152zm10.447 3.689V11H93v17.53h-3.275z" fill="#002248"/><circle cx="102" cy="25" r="4" fill="#00B3A0"/></svg>