<svg width="140" height="116" fill="none" xmlns="http://www.w3.org/2000/svg"><path d="M67.943 72.261a3.935 3.935 0 00.116 3.65l9.01 15.437a3.861 3.861 0 01-.19 4.179 3.936 3.936 0 01-3.832 1.7l-17.705-2.336a4.042 4.042 0 00-1.84.172l-.91.332a2.886 2.886 0 00-.797.633l-12.039 13.22a4.177 4.177 0 01-2.25 1.238 3.973 3.973 0 01-4.545-3.179l-3.035-17.616a4 4 0 00-2.27-2.898l-16.414-7.336a3.86 3.86 0 01-2.287-3.466 4.014 4.014 0 012.068-3.608l15.811-8.506a3.976 3.976 0 002.21-3.123l1.86-17.763a3.7 3.7 0 01.341-1.152l.217-.346c.094-.232.223-.442.381-.633l.317-.268.486-.443 1.414-.516a4 4 0 013.69.938L50.677 52.87a3.973 3.973 0 003.533 1.03l17.577-3.663a4.053 4.053 0 013.975 1.405 3.884 3.884 0 01.41 4.15l-8.23 16.47z" fill="url(#paint0_linear_1_104)"/><g opacity=".5" filter="url(#filter0_f_1_104)"><path d="M52.461 63.328c-7.687 0-13.926 6.24-13.926 13.926 0 7.69 6.239 13.927 13.926 13.927 7.702 0 13.927-6.238 13.927-13.927 0-7.686-6.225-13.926-13.927-13.926z" fill="#FF3D22"/></g><g filter="url(#filter1_b_1_104)"><path d="M108.937 69.667a4.998 4.998 0 00-2.478 3.918l-1.529 22.65a4.906 4.906 0 01-3.177 4.258 4.998 4.998 0 01-5.24-.942l-16.95-15.074a5.136 5.136 0 00-2.057-1.13l-1.193-.3a3.685 3.685 0 00-1.289.098L52.95 88.464a5.305 5.305 0 01-3.249-.302 5.047 5.047 0 01-2.513-6.581l9.364-20.682a5.08 5.08 0 00-.321-4.664L44.2 36.826a4.902 4.902 0 01.067-5.273 5.098 5.098 0 014.744-2.32l22.684 2.325a5.05 5.05 0 004.55-1.708L90.857 12.5c.34-.382.737-.713 1.18-.967l.473-.209a3.06 3.06 0 01.853-.394l.525-.056.826-.12 1.854.466a5.079 5.079 0 013.21 3.616l4.826 22.14a5.048 5.048 0 002.982 3.6l21.088 8.675a5.149 5.149 0 013.178 4.31 4.933 4.933 0 01-2.528 4.655l-20.387 11.45z" fill="#FFAC95" fill-opacity=".4"/><path d="M105.428 96.269h0a5.402 5.402 0 01-3.494 4.69 5.498 5.498 0 01-5.756-1.037l-.002-.001-16.944-15.07-.003-.003a4.634 4.634 0 00-1.85-1.018l-1.15-.288a3.18 3.18 0 00-1.078.087l-.008.002h0L53.066 88.95l-.009.002h0a5.805 5.805 0 01-3.554-.33l-.013-.005h0a5.547 5.547 0 01-2.762-7.235l.004-.008h0l9.36-20.674.002-.003a4.58 4.58 0 00-.291-4.202L43.776 37.09h0a5.402 5.402 0 01.071-5.81 5.599 5.599 0 015.21-2.544h.005l22.684 2.325.021.002a4.55 4.55 0 004.097-1.537l.001-.002 14.61-17.345.008-.01h0c.373-.42.811-.787 1.305-1.07a.481.481 0 01.047-.024l.435-.191c.3-.194.619-.337.954-.434a.498.498 0 01.087-.017l.514-.055.817-.118a.5.5 0 01.194.01l1.853.465.05.016a5.58 5.58 0 013.527 3.972l.001.007h0l4.826 22.14.001.003a4.543 4.543 0 002.684 3.242h.001l21.084 8.673h.001l-23.436 47.48zm0 0l1.529-22.643-1.529 22.643z" stroke="url(#paint1_linear_1_104)" stroke-linecap="round" stroke-linejoin="round"/></g><defs><linearGradient id="paint0_linear_1_104" x1="13.58" y1="66.854" x2="87.353" y2="135.975" gradientUnits="userSpaceOnUse"><stop stop-color="#FFA78F"/><stop offset="1" stop-color="#F23E2C"/></linearGradient><linearGradient id="paint1_linear_1_104" x1="63.487" y1="13.272" x2="98.946" y2="95.279" gradientUnits="userSpaceOnUse"><stop stop-color="#fff" stop-opacity=".25"/><stop offset="1" stop-color="#fff" stop-opacity="0"/></linearGradient><filter id="filter0_f_1_104" x="18.535" y="43.328" width="67.853" height="67.853" filterUnits="userSpaceOnUse" color-interpolation-filters="sRGB"><feFlood flood-opacity="0" result="BackgroundImageFix"/><feBlend in="SourceGraphic" in2="BackgroundImageFix" result="shape"/><feGaussianBlur stdDeviation="10" result="effect1_foregroundBlur_1_104"/></filter><filter id="filter1_b_1_104" x="18.464" y="-14.246" width="138.4" height="140.103" filterUnits="userSpaceOnUse" color-interpolation-filters="sRGB"><feFlood flood-opacity="0" result="BackgroundImageFix"/><feGaussianBlur in="BackgroundImageFix" stdDeviation="12"/><feComposite in2="SourceAlpha" operator="in" result="effect1_backgroundBlur_1_104"/><feBlend in="SourceGraphic" in2="effect1_backgroundBlur_1_104" result="shape"/></filter></defs></svg>