<svg width="111" height="103" fill="none" xmlns="http://www.w3.org/2000/svg"><path d="M71.291 28.062C91.418 28.062 106 44.48 106 62.702c0 5.819-1.697 11.811-4.676 17.284-.555.9-.624 2.044-.243 3.118l2.321 7.759c.52 1.87-1.074 3.256-2.84 2.702l-6.998-2.079c-1.905-.623-3.394.173-5.164 1.247-5.058 2.98-11.358 4.503-17.04 4.503-17.18 0-34.638-13.267-34.638-34.639 0-18.428 14.895-34.535 34.57-34.535z" fill="url(#paint0_linear_1_53)"/><g opacity=".5" filter="url(#filter0_f_1_53)"><path d="M93.41 63.046c0 12.358-10.015 22.371-22.37 22.371-12.356 0-22.372-10.013-22.372-22.37 0-12.354 10.016-22.372 22.371-22.372 12.356 0 22.371 10.018 22.371 22.371z" fill="#3685FB"/></g><g filter="url(#filter1_b_1_53)"><mask id="a" maskUnits="userSpaceOnUse" x="0" y="0" width="91" height="91" fill="#000"><path fill="#fff" d="M0 0h91v91H0z"/><path d="M45.29 1C19.608 1 1 21.951 1 45.201c0 7.426 2.166 15.072 5.967 22.056.707 1.15.796 2.608.31 3.978l-2.962 9.901c-.663 2.387 1.37 4.155 3.625 3.448l8.928-2.652c2.431-.796 4.332.221 6.59 1.591 6.454 3.802 14.494 5.746 21.743 5.746 21.924 0 44.201-16.929 44.201-44.2C89.402 21.552 70.396 1 45.289 1z"/></mask><path d="M45.29 1C19.608 1 1 21.951 1 45.201c0 7.426 2.166 15.072 5.967 22.056.707 1.15.796 2.608.31 3.978l-2.962 9.901c-.663 2.387 1.37 4.155 3.625 3.448l8.928-2.652c2.431-.796 4.332.221 6.59 1.591 6.454 3.802 14.494 5.746 21.743 5.746 21.924 0 44.201-16.929 44.201-44.2C89.402 21.552 70.396 1 45.289 1z" fill="#3685FB" fill-opacity=".35"/><path d="M45.29 2a1 1 0 100-2v2zM6.966 67.257l-.878.478.026.046.852-.524zm.31 3.978l-.943-.334-.016.048.959.286zm-2.962 9.901l-.958-.286a.715.715 0 00-.005.019l.963.267zm3.625 3.448l-.285-.959a.39.39 0 00-.015.005l.3.954zm8.928-2.652l.285.959a.8.8 0 00.026-.009l-.31-.95zm6.59 1.591l-.518.855.011.007.508-.862zM45.29 0a1 1 0 100 2V0zm0 0C19.023 0 0 21.433 0 45.201h2C2 22.471 20.194 2 45.29 2V0zM0 45.201c0 7.617 2.22 15.426 6.089 22.534l1.756-.956C4.112 59.92 2 52.436 2 45.201H0zm6.115 22.58c.525.853.62 1.988.22 3.12l1.884.669c.57-1.61.49-3.39-.4-4.837l-1.704 1.048zm.203 3.168l-2.961 9.9 1.916.574 2.962-9.901-1.917-.573zm-2.966 9.92c-.427 1.534.005 2.966 1.004 3.887.987.91 2.437 1.236 3.883.782L7.64 83.63c-.808.253-1.501.05-1.929-.345-.416-.383-.67-1.028-.432-1.88l-1.927-.536zm4.872 4.674l8.929-2.652-.57-1.918-8.928 2.653.57 1.917zm8.955-2.66c1.95-.639 3.477.11 5.76 1.495l1.038-1.71c-2.233-1.355-4.508-2.64-7.42-1.686l.622 1.9zm5.772 1.502c6.623 3.901 14.842 5.884 22.25 5.884v-2c-7.09 0-14.951-1.906-21.235-5.607l-1.015 1.723zm22.25 5.884c22.395 0 45.201-17.299 45.201-45.2h-2c0 26.642-21.749 43.2-43.201 43.2v2zm45.201-45.2C90.402 21.022 70.97 0 45.289 0v2c24.532 0 43.113 20.083 43.113 43.068h2z" fill="url(#paint1_linear_1_53)" mask="url(#a)"/></g><g filter="url(#filter2_bd_1_53)"><mask id="b" fill="#fff"><path fill-rule="evenodd" clip-rule="evenodd" d="M45.115 50.902c-3.139-.044-5.658-2.563-5.658-5.702 0-3.094 2.563-5.657 5.658-5.613a5.64 5.64 0 015.657 5.658c0 3.094-2.52 5.657-5.657 5.657zm-20.379 0c-3.094 0-5.657-2.563-5.657-5.657a5.64 5.64 0 015.657-5.658 5.64 5.64 0 015.658 5.658c0 3.094-2.52 5.613-5.658 5.658zm35.097-5.657c0 3.094 2.52 5.657 5.658 5.657 3.138 0 5.657-2.563 5.657-5.657a5.64 5.64 0 00-5.657-5.658 5.64 5.64 0 00-5.658 5.658z"/></mask><path fill-rule="evenodd" clip-rule="evenodd" d="M45.115 50.902c-3.139-.044-5.658-2.563-5.658-5.702 0-3.094 2.563-5.657 5.658-5.613a5.64 5.64 0 015.657 5.658c0 3.094-2.52 5.657-5.657 5.657zm-20.379 0c-3.094 0-5.657-2.563-5.657-5.657a5.64 5.64 0 015.657-5.658 5.64 5.64 0 015.658 5.658c0 3.094-2.52 5.613-5.658 5.658zm35.097-5.657c0 3.094 2.52 5.657 5.658 5.657 3.138 0 5.657-2.563 5.657-5.657a5.64 5.64 0 00-5.657-5.658 5.64 5.64 0 00-5.658 5.658z" fill="url(#paint2_linear_1_53)"/><path d="M45.115 50.902l-.006.4h.006v-.4zm0-11.315l-.006.4h.006v-.4zM24.736 50.903v.4h.006l-.006-.4zm14.32-5.703c0 3.36 2.7 6.055 6.053 6.102l.011-.8c-2.923-.04-5.263-2.385-5.263-5.302h-.8zm6.064-6.013c-3.32-.047-6.063 2.7-6.063 6.014h.8c0-2.875 2.384-5.255 5.252-5.214l.011-.8zm6.052 6.058a6.04 6.04 0 00-6.057-6.058v.8a5.24 5.24 0 015.257 5.258h.8zm-6.057 6.057c3.36 0 6.057-2.744 6.057-6.057h-.8c0 2.875-2.342 5.257-5.257 5.257v.8zm-26.436-6.057c0 3.315 2.742 6.058 6.057 6.058v-.8c-2.873 0-5.257-2.385-5.257-5.258h-.8zm6.057-6.058a6.04 6.04 0 00-6.057 6.058h.8a5.24 5.24 0 015.257-5.258v-.8zm6.058 6.058a6.04 6.04 0 00-6.058-6.058v.8a5.24 5.24 0 015.258 5.258h.8zm-6.052 6.058c3.352-.048 6.052-2.74 6.052-6.058h-.8c0 2.87-2.338 5.216-5.263 5.258l.01.8zm40.749-.8c-2.916 0-5.258-2.383-5.258-5.258h-.8c0 3.313 2.696 6.057 6.058 6.057v-.8zm5.257-5.258c0 2.875-2.342 5.257-5.257 5.257v.8c3.36 0 6.057-2.744 6.057-6.057h-.8zm-5.257-5.258a5.24 5.24 0 015.257 5.258h.8a6.04 6.04 0 00-6.057-6.058v.8zm-5.258 5.258a5.24 5.24 0 015.258-5.258v-.8a6.04 6.04 0 00-6.058 6.058h.8z" fill="url(#paint3_linear_1_53)" mask="url(#b)"/></g><defs><linearGradient id="paint0_linear_1_53" x1="71.361" y1="28.062" x2="71.361" y2="97.236" gradientUnits="userSpaceOnUse"><stop stop-color="#A4C8FF"/><stop offset="1" stop-color="#3685FB"/></linearGradient><linearGradient id="paint1_linear_1_53" x1="15.072" y1="11.284" x2="71.361" y2="81.103" gradientUnits="userSpaceOnUse"><stop stop-color="#fff" stop-opacity=".25"/><stop offset="1" stop-color="#fff" stop-opacity="0"/></linearGradient><linearGradient id="paint2_linear_1_53" x1="67.457" y1="41.63" x2="10.672" y2="50.149" gradientUnits="userSpaceOnUse"><stop stop-color="#fff"/><stop offset="1" stop-color="#fff" stop-opacity=".2"/></linearGradient><linearGradient id="paint3_linear_1_53" x1="27.367" y1="40.905" x2="29.881" y2="55.232" gradientUnits="userSpaceOnUse"><stop stop-color="#fff" stop-opacity=".25"/><stop offset="1" stop-color="#fff" stop-opacity="0"/></linearGradient><filter id="filter0_f_1_53" x="31.668" y="23.675" width="78.742" height="78.742" filterUnits="userSpaceOnUse" color-interpolation-filters="sRGB"><feFlood flood-opacity="0" result="BackgroundImageFix"/><feBlend in="SourceGraphic" in2="BackgroundImageFix" result="shape"/><feGaussianBlur stdDeviation="8.5" result="effect1_foregroundBlur_1_53"/></filter><filter id="filter1_b_1_53" x="-24" y="-24" width="138.402" height="138.269" filterUnits="userSpaceOnUse" color-interpolation-filters="sRGB"><feFlood flood-opacity="0" result="BackgroundImageFix"/><feGaussianBlur in="BackgroundImageFix" stdDeviation="12"/><feComposite in2="SourceAlpha" operator="in" result="effect1_backgroundBlur_1_53"/><feBlend in="SourceGraphic" in2="effect1_backgroundBlur_1_53" result="shape"/></filter><filter id="filter2_bd_1_53" x="4.079" y="24.586" width="82.07" height="41.316" filterUnits="userSpaceOnUse" color-interpolation-filters="sRGB"><feFlood flood-opacity="0" result="BackgroundImageFix"/><feGaussianBlur in="BackgroundImageFix" stdDeviation="7.5"/><feComposite in2="SourceAlpha" operator="in" result="effect1_backgroundBlur_1_53"/><feColorMatrix in="SourceAlpha" values="0 0 0 0 0 0 0 0 0 0 0 0 0 0 0 0 0 0 127 0" result="hardAlpha"/><feOffset dx="5" dy="5"/><feGaussianBlur stdDeviation="5"/><feColorMatrix values="0 0 0 0 0.170833 0 0 0 0 0.5025 0 0 0 0 1 0 0 0 1 0"/><feBlend in2="effect1_backgroundBlur_1_53" result="effect2_dropShadow_1_53"/><feBlend in="SourceGraphic" in2="effect2_dropShadow_1_53" result="shape"/></filter></defs></svg>