<svg width="111" height="113" fill="none" xmlns="http://www.w3.org/2000/svg"><path fill-rule="evenodd" clip-rule="evenodd" d="M26.164 15.162c-1.023 1.374-3.225 6.055-4.284 8.434l73.6 30.874c.957-2.427 2.77-7.314 3.02-8.965 1.646-9.363-2.707-17.678-11.697-22.416l-36.45-15.29c-9.744-3.169-18.63-.45-24.19 7.362zM8.803 54.731L21.866 23.59l73.63 30.886-13.168 31.391c-5.386 12.84-16.78 17.345-29.712 11.92L20.974 84.515C8.164 79.14 3.38 67.659 8.803 54.732z" fill="url(#paint0_linear_1_69)"/><g opacity=".5" filter="url(#filter0_f_1_69)"><path d="M70.553 29.864l-20.414-8.24c-7.405-2.988-13.618-.018-16.876 8.055L22.228 57.017c-3.311 8.204-.859 14.55 6.546 17.538l20.414 8.24c7.525 3.037 13.573.123 16.884-8.082l11.035-27.339c3.258-8.072.97-14.474-6.554-17.51z" fill="#00B3A0"/></g><g filter="url(#filter1_b_1_69)"><mask id="a" maskUnits="userSpaceOnUse" x="29.154" y="28.628" width="82" height="85" fill="#000"><path fill="#fff" d="M29.154 28.628h82v85h-82z"/><path fill-rule="evenodd" clip-rule="evenodd" d="M30.857 45.775c-.412 1.663-.63 6.83-.688 9.435h79.815c-.057-2.609-.276-7.816-.683-9.435-2.104-9.271-9.335-15.255-19.458-16.147H50.315c-10.211.847-17.354 6.791-19.458 16.147zm-.703 9.435v33.77c0 14.018 8.853 22.757 22.745 22.757h34.313c14.023 0 22.788-8.562 22.788-22.486v-34.04H30.154zm18.23 19.314c.088 2.036 1.754 3.638 3.77 3.545 1.972-.085 3.55-1.77 3.461-3.815a3.625 3.625 0 00-3.637-3.549c-2.016.093-3.593 1.779-3.593 3.82zm18.012 0c.088 2.036 1.753 3.638 3.769 3.545 1.972-.085 3.55-1.77 3.462-3.815a3.625 3.625 0 00-3.637-3.549c-2.016.093-3.594 1.779-3.594 3.82zm18.011 16.098c0 2.04 1.622 3.726 3.638 3.77 2.06 0 3.725-1.685 3.725-3.77 0-2.08-1.665-3.766-3.725-3.766H88a3.687 3.687 0 00-3.594 3.766zm-14.242 3.549c-2.016.093-3.681-1.508-3.769-3.549 0-2.04 1.578-3.722 3.594-3.815a3.626 3.626 0 013.637 3.553c.088 2.04-1.49 3.727-3.462 3.81zm-18.055 0c-2.016.093-3.681-1.508-3.77-3.549 0-2.04 1.578-3.722 3.594-3.815a3.626 3.626 0 013.638 3.553c.087 2.04-1.49 3.727-3.462 3.81zm35.935-23.417c-2.016.044-3.594 1.685-3.594 3.726v.044c.044 2.036 1.71 3.589 3.725 3.545 1.972-.04 3.55-1.726 3.506-3.767-.088-1.956-1.665-3.548-3.637-3.548z"/></mask><path fill-rule="evenodd" clip-rule="evenodd" d="M30.857 45.775c-.412 1.663-.63 6.83-.688 9.435h79.815c-.057-2.609-.276-7.816-.683-9.435-2.104-9.271-9.335-15.255-19.458-16.147H50.315c-10.211.847-17.354 6.791-19.458 16.147zm-.703 9.435v33.77c0 14.018 8.853 22.757 22.745 22.757h34.313c14.023 0 22.788-8.562 22.788-22.486v-34.04H30.154zm18.23 19.314c.088 2.036 1.754 3.638 3.77 3.545 1.972-.085 3.55-1.77 3.461-3.815a3.625 3.625 0 00-3.637-3.549c-2.016.093-3.593 1.779-3.593 3.82zm18.012 0c.088 2.036 1.753 3.638 3.769 3.545 1.972-.085 3.55-1.77 3.462-3.815a3.625 3.625 0 00-3.637-3.549c-2.016.093-3.594 1.779-3.594 3.82zm18.011 16.098c0 2.04 1.622 3.726 3.638 3.77 2.06 0 3.725-1.685 3.725-3.77 0-2.08-1.665-3.766-3.725-3.766H88a3.687 3.687 0 00-3.594 3.766zm-14.242 3.549c-2.016.093-3.681-1.508-3.769-3.549 0-2.04 1.578-3.722 3.594-3.815a3.626 3.626 0 013.637 3.553c.088 2.04-1.49 3.727-3.462 3.81zm-18.055 0c-2.016.093-3.681-1.508-3.77-3.549 0-2.04 1.578-3.722 3.594-3.815a3.626 3.626 0 013.638 3.553c.087 2.04-1.49 3.727-3.462 3.81zm35.935-23.417c-2.016.044-3.594 1.685-3.594 3.726v.044c.044 2.036 1.71 3.589 3.725 3.545 1.972-.04 3.55-1.726 3.506-3.767-.088-1.956-1.665-3.548-3.637-3.548z" fill="#00B3A0" fill-opacity=".35"/><path d="M30.17 55.21l-1-.022a1 1 0 001 1.022v-1zm.687-9.435l.971.24.005-.021-.976-.22zm79.127 9.435v1a1 1 0 001-1.022l-1 .022zm-.683-9.435l-.976.22.006.024.97-.244zM89.843 29.628l.088-.996a.988.988 0 00-.088-.004v1zm-39.528 0v-1a.99.99 0 00-.083.003l.083.997zM30.155 55.21v-1a1 1 0 00-1 1h1zm79.845 0h1a1 1 0 00-1-1v1zM52.154 78.07l-.043-1h-.004l.047 1zm-3.77-3.545h-1l.002.043.999-.043zm7.231-.27l-1 .022a.71.71 0 00.002.02l.998-.042zm-3.637-3.549v-1l-.046.001.046.999zm18.187 7.364l-.043-1h-.003l.046 1zm-3.769-3.545h-1l.001.043 1-.043zm7.231-.27l-1 .022v.02l1-.042zm-3.637-3.549v-1l-.046.001.046.999zm18.055 23.688l-.022 1h.022v-1zm-3.638-3.77h1V90.6l-1 .021zm3.594-3.767v-1h-.022l.022 1zm-21.605 3.766h-1l.001.043 1-.043zm3.769 3.549l-.043-1h-.003l.046 1zm-.175-7.364v-1l-.046.001.046 1zm3.637 3.553l-1 .022v.021l1-.043zm-25.286.262h-1v.043l1-.043zm3.769 3.549l-.043-1h-.004l.047 1zm-.176-7.364v-1l-.046.001.046 1zm3.638 3.553l-1 .022v.021l1-.043zm32.473-19.606v-1h-.022l.022 1zm-3.594 3.77h-1v.022l1-.022zm3.725 3.545l-.02-1h-.002l.022 1zm3.506-3.767l1-.021-.001-.023-1 .044zm-60.513-19.07c.028-1.292.097-3.221.21-5.03.114-1.847.269-3.46.449-4.187l-1.941-.48c-.232.935-.393 2.738-.505 4.542a136.198 136.198 0 00-.213 5.11l2 .044zm78.815-1.022H30.169v2h79.815v-2zm-1.653-8.191c.177.702.331 2.31.445 4.164.112 1.814.18 3.755.209 5.048l1.999-.043a138.61 138.61 0 00-.212-5.128c-.111-1.807-.271-3.613-.502-4.53l-1.939.489zM89.755 30.624c9.733.857 16.572 6.565 18.57 15.372l1.951-.443c-2.209-9.735-9.832-15.995-20.345-16.921l-.176 1.992zm-39.44.004h39.528v-2H50.315v2zM31.833 45.994c2-8.892 8.75-14.555 18.564-15.37l-.165-1.993c-10.607.88-18.143 7.106-20.35 16.924l1.95.439zm-.679 42.987V55.21h-2v33.77h2zM52.9 110.737c-6.734 0-12.148-2.114-15.876-5.83-3.728-3.715-5.869-9.131-5.869-15.926h-2c0 7.222 2.285 13.184 6.457 17.342 4.171 4.158 10.13 6.414 17.288 6.414v-2zm34.313 0H52.9v2h34.313v-2zM109 89.251c0 6.749-2.119 12.094-5.836 15.752-3.72 3.659-9.145 5.734-15.952 5.734v2c7.216 0 13.185-2.207 17.354-6.309 4.171-4.104 6.434-10.001 6.434-17.177h-2zm0-34.04v34.04h2v-34.04h-2zm-78.846 1H110v-2H30.154v2zM52.107 77.07c-1.43.066-2.658-1.073-2.723-2.589l-1.998.086c.11 2.556 2.212 4.62 4.814 4.5l-.093-1.997zm2.51-2.773c.064 1.494-1.088 2.712-2.506 2.773l.085 1.998c2.526-.108 4.53-2.262 4.419-4.857l-1.998.085zm-2.639-2.592a2.625 2.625 0 012.638 2.57l2-.043a4.625 4.625 0 00-4.638-4.527v2zm-2.593 2.82c0-1.522 1.172-2.753 2.64-2.821l-.093-1.998c-2.565.119-4.547 2.259-4.547 4.818h2zm20.734 2.545c-1.43.066-2.659-1.073-2.724-2.589l-1.998.086c.11 2.556 2.213 4.62 4.814 4.5l-.092-1.997zm2.509-2.773c.064 1.494-1.087 2.712-2.506 2.773l.086 1.998c2.525-.108 4.53-2.262 4.418-4.857l-1.998.085zm-2.638-2.592a2.625 2.625 0 012.637 2.57l2-.043a4.625 4.625 0 00-4.637-4.527v2zm-2.594 2.82c0-1.522 1.173-2.753 2.64-2.821l-.093-1.998c-2.564.119-4.547 2.259-4.547 4.818h2zm20.67 18.868c-1.458-.032-2.659-1.26-2.659-2.77h-2c0 2.57 2.043 4.713 4.616 4.77l.044-2zm2.704-2.77c0 1.543-1.23 2.77-2.725 2.77v2c2.623 0 4.725-2.145 4.725-4.77h-2zm-2.725-2.767c1.497 0 2.725 1.227 2.725 2.766h2c0-2.622-2.103-4.766-4.725-4.766v2zm-.044 0h.044v-2H88v2zm-2.594 2.745a2.687 2.687 0 012.616-2.745l-.044-2a4.687 4.687 0 00-4.571 4.788l2-.043zm-20.01.064c.11 2.56 2.212 4.625 4.814 4.505l-.092-1.998c-1.43.066-2.658-1.072-2.724-2.593l-1.998.086zm4.546-4.857c-2.563.119-4.547 2.253-4.547 4.814h2c0-1.52 1.171-2.748 2.64-2.816l-.093-1.998zm4.684 4.53a4.626 4.626 0 00-4.637-4.53v2a2.626 2.626 0 012.637 2.574l2-.044zm-4.42 4.832c2.526-.108 4.53-2.261 4.42-4.853l-2 .086c.065 1.49-1.085 2.708-2.505 2.769l.086 1.998zm-22.865-4.505c.11 2.56 2.212 4.625 4.814 4.505l-.093-1.998c-1.43.066-2.658-1.072-2.723-2.593l-1.998.086zm4.546-4.857c-2.563.119-4.547 2.253-4.547 4.814h2c0-1.52 1.17-2.748 2.64-2.816l-.093-1.998zm4.683 4.53a4.626 4.626 0 00-4.637-4.53v2a2.626 2.626 0 012.638 2.574l2-.044zm-4.419 4.832c2.525-.108 4.53-2.261 4.419-4.853l-1.998.086c.064 1.49-1.087 2.708-2.506 2.769l.085 1.998zm33.3-20.69c0-1.511 1.157-2.694 2.615-2.726l-.044-2c-2.574.057-4.572 2.156-4.572 4.726h2zm0 .044v-.044h-2v.044h2zm2.702 2.545c-1.475.032-2.671-1.094-2.703-2.566l-2 .043c.056 2.6 2.19 4.579 4.747 4.522l-.044-2zm2.528-2.745c.033 1.515-1.133 2.717-2.526 2.745l.04 2c2.551-.052 4.54-2.222 4.486-4.788l-2 .043zm-2.637-2.57c1.409 0 2.573 1.143 2.638 2.593l1.998-.09c-.11-2.462-2.102-4.503-4.636-4.503v2z" fill="url(#paint1_linear_1_69)" mask="url(#a)"/></g><g filter="url(#filter2_bd_1_69)"><mask id="b" fill="#fff"><path fill-rule="evenodd" clip-rule="evenodd" d="M89.842 39.964c0 1.956-1.49 3.415-3.374 3.415-1.929 0-3.375-1.459-3.375-3.415V26.439c0-1.956 1.446-3.42 3.374-3.42 1.885 0 3.375 1.464 3.375 3.42v13.525zm-32.781 0c0 1.956-1.446 3.416-3.374 3.416-1.929 0-3.375-1.46-3.375-3.416V26.439c0-1.956 1.446-3.42 3.375-3.42 1.928 0 3.374 1.464 3.374 3.42v13.525z"/></mask><path fill-rule="evenodd" clip-rule="evenodd" d="M89.842 39.964c0 1.956-1.49 3.415-3.374 3.415-1.929 0-3.375-1.459-3.375-3.415V26.439c0-1.956 1.446-3.42 3.374-3.42 1.885 0 3.375 1.464 3.375 3.42v13.525zm-32.781 0c0 1.956-1.446 3.416-3.374 3.416-1.929 0-3.375-1.46-3.375-3.416V26.439c0-1.956 1.446-3.42 3.375-3.42 1.928 0 3.374 1.464 3.374 3.42v13.525z" fill="url(#paint2_linear_1_69)"/><path d="M86.468 43.78c2.106 0 3.774-1.64 3.774-3.816h-.8c0 1.736-1.312 3.015-2.974 3.015v.8zm-3.775-3.816c0 2.173 1.621 3.815 3.775 3.815v-.8c-1.704 0-2.975-1.276-2.975-3.015h-.8zm0-13.525v13.525h.8V26.439h-.8zm3.775-3.82c-2.154 0-3.775 1.648-3.775 3.82h.8c0-1.74 1.272-3.02 2.975-3.02v-.8zm3.774 3.82c0-2.176-1.668-3.82-3.775-3.82v.8c1.662 0 2.975 1.283 2.975 3.02h.8zm0 13.525V26.439h-.8v13.525h.8zM53.686 43.78c2.154 0 3.775-1.643 3.775-3.816h-.8c0 1.74-1.271 3.016-2.974 3.016v.8zm-3.774-3.816c0 2.173 1.621 3.816 3.775 3.816v-.8c-1.704 0-2.975-1.277-2.975-3.016h-.8zm0-13.525v13.525h.8V26.439h-.8zm3.775-3.82c-2.155 0-3.775 1.648-3.775 3.82h.8c0-1.74 1.272-3.02 2.974-3.02v-.8zm3.774 3.82c0-2.172-1.62-3.82-3.774-3.82v.8c1.702 0 2.974 1.28 2.974 3.02h.8zm0 13.525V26.439h-.8v13.525h.8z" fill="url(#paint3_linear_1_69)" mask="url(#b)"/></g><g filter="url(#filter3_bd_1_69)"><mask id="c" fill="#fff"><path fill-rule="evenodd" clip-rule="evenodd" d="M48.425 74.565c.088 2.036 1.753 3.637 3.769 3.544 1.972-.084 3.55-1.77 3.462-3.815a3.625 3.625 0 00-3.637-3.549c-2.016.093-3.594 1.78-3.594 3.82zm18.01 0c.088 2.036 1.754 3.637 3.77 3.544 1.971-.084 3.55-1.77 3.461-3.815a3.625 3.625 0 00-3.637-3.549c-2.016.093-3.593 1.78-3.593 3.82zm18.012 16.097c0 2.04 1.621 3.726 3.637 3.77 2.06 0 3.725-1.685 3.725-3.77 0-2.08-1.665-3.766-3.725-3.766h-.044a3.687 3.687 0 00-3.593 3.766zm-14.243 3.55c-2.015.092-3.68-1.509-3.768-3.55 0-2.04 1.577-3.721 3.593-3.814a3.626 3.626 0 013.637 3.553c.088 2.04-1.49 3.726-3.462 3.81zm-18.055 0c-2.016.092-3.681-1.509-3.769-3.55 0-2.04 1.578-3.721 3.594-3.814A3.626 3.626 0 0155.61 90.4c.088 2.04-1.49 3.726-3.462 3.81zm35.935-23.418c-2.016.045-3.594 1.686-3.594 3.726v.045c.044 2.036 1.71 3.588 3.726 3.544 1.972-.04 3.55-1.725 3.505-3.766-.087-1.956-1.665-3.549-3.637-3.549z"/></mask><path fill-rule="evenodd" clip-rule="evenodd" d="M48.425 74.565c.088 2.036 1.753 3.637 3.769 3.544 1.972-.084 3.55-1.77 3.462-3.815a3.625 3.625 0 00-3.637-3.549c-2.016.093-3.594 1.78-3.594 3.82zm18.01 0c.088 2.036 1.754 3.637 3.77 3.544 1.971-.084 3.55-1.77 3.461-3.815a3.625 3.625 0 00-3.637-3.549c-2.016.093-3.593 1.78-3.593 3.82zm18.012 16.097c0 2.04 1.621 3.726 3.637 3.77 2.06 0 3.725-1.685 3.725-3.77 0-2.08-1.665-3.766-3.725-3.766h-.044a3.687 3.687 0 00-3.593 3.766zm-14.243 3.55c-2.015.092-3.68-1.509-3.768-3.55 0-2.04 1.577-3.721 3.593-3.814a3.626 3.626 0 013.637 3.553c.088 2.04-1.49 3.726-3.462 3.81zm-18.055 0c-2.016.092-3.681-1.509-3.769-3.55 0-2.04 1.578-3.721 3.594-3.814A3.626 3.626 0 0155.61 90.4c.088 2.04-1.49 3.726-3.462 3.81zm35.935-23.418c-2.016.045-3.594 1.686-3.594 3.726v.045c.044 2.036 1.71 3.588 3.726 3.544 1.972-.04 3.55-1.725 3.505-3.766-.087-1.956-1.665-3.549-3.637-3.549z" fill="url(#paint4_linear_1_69)"/><path d="M52.194 78.109l-.017-.4h-.002l.019.4zm-3.769-3.544h-.4v.017l.4-.017zm7.23-.27l-.4.008.001.008.4-.017zm-3.636-3.55v-.4H52l.019.4zm18.185 7.364l-.017-.4h-.001l.018.4zm-3.768-3.544h-.4v.017l.4-.017zm7.23-.27l-.4.008v.008l.4-.017zm-3.637-3.55v-.4h-.018l.018.4zm18.055 23.688l-.009.4h.01v-.4zm-3.637-3.77h.4v-.01l-.4.01zm3.593-3.767v-.4h-.008l.008.4zm-21.604 3.767h-.4v.017l.4-.017zm3.768 3.548l-.017-.4h-.001l.018.4zm-.175-7.363v-.4h-.018l.018.4zm3.637 3.553l-.4.009v.008l.4-.017zm-25.286.262h-.4v.017l.4-.017zm3.769 3.548l-.017-.4h-.001l.018.4zm-.175-7.363v-.4h-.019l.019.4zM55.61 90.4l-.4.009v.008l.4-.017zm32.473-19.607v-.4h-.009l.009.4zm-3.594 3.77h-.4v.01l.4-.01zm3.726 3.545l-.009-.4.009.4zm3.505-3.766l.4-.009v-.009l-.4.018zm-39.546 3.366c-1.781.083-3.272-1.334-3.35-3.162l-.8.035c.097 2.244 1.937 4.03 4.187 3.927l-.037-.8zm3.081-3.398c.078 1.825-1.329 3.323-3.08 3.398l.035.8c2.193-.094 3.942-1.967 3.845-4.232l-.8.034zm-3.237-3.166a3.225 3.225 0 013.237 3.158l.8-.018a4.025 4.025 0 00-4.037-3.94v.8zm-3.194 3.42c0-1.833 1.416-3.337 3.212-3.42l-.037-.8c-2.235.104-3.975 1.972-3.975 4.22h.8zm21.36 3.144c-1.78.083-3.271-1.334-3.35-3.162l-.799.035c.097 2.244 1.937 4.03 4.187 3.927l-.037-.8zm3.082-3.398c.078 1.825-1.33 3.323-3.08 3.398l.035.8c2.193-.094 3.941-1.967 3.844-4.232l-.8.034zm-3.238-3.166a3.225 3.225 0 013.237 3.158l.8-.018a4.025 4.025 0 00-4.037-3.94v.8zm-3.193 3.42c0-1.833 1.415-3.337 3.212-3.42l-.037-.8c-2.236.104-3.975 1.972-3.975 4.22h.8zm21.257 19.468c-1.793-.04-3.246-1.542-3.246-3.37h-.8c0 2.252 1.79 4.12 4.028 4.17l.018-.8zm3.316-3.37c0 1.868-1.49 3.37-3.325 3.37v.8c2.285 0 4.125-1.87 4.125-4.17h-.8zm-3.325-3.367c1.835 0 3.325 1.502 3.325 3.366h.8c0-2.297-1.84-4.166-4.125-4.166v.8zm-.044 0h.044v-.8h-.044v.8zm-3.193 3.358a3.287 3.287 0 013.202-3.358l-.017-.8a4.087 4.087 0 00-3.985 4.175l.8-.017zm-18.811.026c.096 2.248 1.936 4.035 4.187 3.93l-.037-.798c-1.782.082-3.272-1.334-3.35-3.167l-.8.035zm3.975-4.232c-2.235.103-3.975 1.966-3.975 4.215h.8c0-1.833 1.415-3.333 3.212-3.416l-.037-.799zm4.055 3.944a4.026 4.026 0 00-4.037-3.944v.8a3.226 3.226 0 013.237 3.162l.8-.018zm-3.844 4.219c2.193-.094 3.941-1.966 3.844-4.227l-.8.034c.079 1.82-1.328 3.319-3.079 3.394l.035.799zM47.98 90.68c.096 2.248 1.936 4.035 4.186 3.93l-.036-.798c-1.782.082-3.272-1.334-3.351-3.167l-.8.035zm3.974-4.232c-2.234.103-3.975 1.966-3.975 4.215h.8c0-1.833 1.415-3.333 3.212-3.416l-.037-.799zm4.056 3.944a4.026 4.026 0 00-4.037-3.944v.8a3.226 3.226 0 013.237 3.162l.8-.018zm-3.845 4.219c2.193-.094 3.942-1.966 3.845-4.227l-.8.034c.079 1.82-1.328 3.319-3.079 3.394l.034.799zm32.725-20.09c0-1.83 1.409-3.287 3.202-3.327l-.018-.8c-2.239.05-3.984 1.874-3.984 4.126h.8zm0 .044v-.045h-.8v.045h.8zm3.316 3.144c-1.8.04-3.278-1.342-3.317-3.153l-.8.017c.05 2.262 1.902 3.985 4.134 3.936l-.017-.8zm3.114-3.357c.04 1.83-1.373 3.322-3.114 3.357l.017.8c2.203-.045 3.946-1.924 3.897-4.175l-.8.018zm-3.237-3.158c1.747 0 3.16 1.413 3.238 3.167l.799-.036c-.097-2.159-1.84-3.93-4.037-3.93v.8z" fill="url(#paint5_linear_1_69)" mask="url(#c)"/></g><g opacity=".5" filter="url(#filter4_b_1_69)"><path d="M34.228 55.544c0 1.884 1.46 3.374 3.416 3.374h63.233c1.956 0 3.42-1.49 3.42-3.374 0-1.928-1.464-3.375-3.42-3.375H37.644c-1.957 0-3.416 1.447-3.416 3.375z" fill="url(#paint6_linear_1_69)" fill-opacity=".5"/></g><defs><linearGradient id="paint0_linear_1_69" x1="68.577" y1="15.443" x2="36.815" y2="91.16" gradientUnits="userSpaceOnUse"><stop stop-color="#7DD6CC"/><stop offset="1" stop-color="#00B3A0"/></linearGradient><linearGradient id="paint1_linear_1_69" x1="42.864" y1="39.194" x2="95.531" y2="102.624" gradientUnits="userSpaceOnUse"><stop stop-color="#fff" stop-opacity=".25"/><stop offset="1" stop-color="#fff" stop-opacity="0"/></linearGradient><linearGradient id="paint2_linear_1_69" x1="87.459" y1="40.22" x2="88.646" y2="24.927" gradientUnits="userSpaceOnUse"><stop stop-color="#fff"/><stop offset="1" stop-color="#fff" stop-opacity=".2"/></linearGradient><linearGradient id="paint3_linear_1_69" x1="86.372" y1="26.098" x2="102.445" y2="32.126" gradientUnits="userSpaceOnUse"><stop stop-color="#fff" stop-opacity=".25"/><stop offset="1" stop-color="#fff" stop-opacity="0"/></linearGradient><linearGradient id="paint4_linear_1_69" x1="88.73" y1="75.023" x2="15.506" y2="70.198" gradientUnits="userSpaceOnUse"><stop stop-color="#fff"/><stop offset="1" stop-color="#fff" stop-opacity=".2"/></linearGradient><linearGradient id="paint5_linear_1_69" x1="55.293" y1="73.505" x2="66.696" y2="99.397" gradientUnits="userSpaceOnUse"><stop stop-color="#fff" stop-opacity=".25"/><stop offset="1" stop-color="#fff" stop-opacity="0"/></linearGradient><linearGradient id="paint6_linear_1_69" x1="53.14" y1="55.449" x2="50.628" y2="47.58" gradientUnits="userSpaceOnUse"><stop stop-color="#fff"/><stop offset="1" stop-color="#fff" stop-opacity=".2"/></linearGradient><filter id="filter0_f_1_69" x="1.782" y="1.486" width="95.769" height="101.483" filterUnits="userSpaceOnUse" color-interpolation-filters="sRGB"><feFlood flood-opacity="0" result="BackgroundImageFix"/><feBlend in="SourceGraphic" in2="BackgroundImageFix" result="shape"/><feGaussianBlur stdDeviation="9.5" result="effect1_foregroundBlur_1_69"/></filter><filter id="filter1_b_1_69" x="5.154" y="4.628" width="129.846" height="132.109" filterUnits="userSpaceOnUse" color-interpolation-filters="sRGB"><feFlood flood-opacity="0" result="BackgroundImageFix"/><feGaussianBlur in="BackgroundImageFix" stdDeviation="12"/><feComposite in2="SourceAlpha" operator="in" result="effect1_backgroundBlur_1_69"/><feBlend in="SourceGraphic" in2="effect1_backgroundBlur_1_69" result="shape"/></filter><filter id="filter2_bd_1_69" x="35.312" y="8.019" width="69.53" height="50.361" filterUnits="userSpaceOnUse" color-interpolation-filters="sRGB"><feFlood flood-opacity="0" result="BackgroundImageFix"/><feGaussianBlur in="BackgroundImageFix" stdDeviation="7.5"/><feComposite in2="SourceAlpha" operator="in" result="effect1_backgroundBlur_1_69"/><feColorMatrix in="SourceAlpha" values="0 0 0 0 0 0 0 0 0 0 0 0 0 0 0 0 0 0 127 0" result="hardAlpha"/><feOffset dx="5" dy="5"/><feGaussianBlur stdDeviation="5"/><feColorMatrix values="0 0 0 0 1 0 0 0 0 0.537255 0 0 0 0 0.160784 0 0 0 0.2 0"/><feBlend in2="effect1_backgroundBlur_1_69" result="effect2_dropShadow_1_69"/><feBlend in="SourceGraphic" in2="effect2_dropShadow_1_69" result="shape"/></filter><filter id="filter3_bd_1_69" x="33.38" y="55.745" width="73.429" height="53.687" filterUnits="userSpaceOnUse" color-interpolation-filters="sRGB"><feFlood flood-opacity="0" result="BackgroundImageFix"/><feGaussianBlur in="BackgroundImageFix" stdDeviation="7.5"/><feComposite in2="SourceAlpha" operator="in" result="effect1_backgroundBlur_1_69"/><feColorMatrix in="SourceAlpha" values="0 0 0 0 0 0 0 0 0 0 0 0 0 0 0 0 0 0 127 0" result="hardAlpha"/><feOffset dx="5" dy="5"/><feGaussianBlur stdDeviation="5"/><feColorMatrix values="0 0 0 0 0 0 0 0 0 0.514518 0 0 0 0 0.459904 0 0 0 0.5 0"/><feBlend in2="effect1_backgroundBlur_1_69" result="effect2_dropShadow_1_69"/><feBlend in="SourceGraphic" in2="effect2_dropShadow_1_69" result="shape"/></filter><filter id="filter4_b_1_69" x="19.228" y="37.169" width="100.069" height="36.749" filterUnits="userSpaceOnUse" color-interpolation-filters="sRGB"><feFlood flood-opacity="0" result="BackgroundImageFix"/><feGaussianBlur in="BackgroundImageFix" stdDeviation="7.5"/><feComposite in2="SourceAlpha" operator="in" result="effect1_backgroundBlur_1_69"/><feBlend in="SourceGraphic" in2="effect1_backgroundBlur_1_69" result="shape"/></filter></defs></svg>